<?xml version="1.0" encoding="utf-8"?>
<svg viewBox="1.34 -4.203 725.41 47" width="725.41" height="47" xmlns="http://www.w3.org/2000/svg">
  <g transform="matrix(0.47827401757240295, 0, 0, -0.47827401757240295, 2.34040904045105, 39.16543197631839)" id="g10">
    <g transform="scale(0.1)" id="g12">
      <path id="path14" style="fill-opacity: 1; fill-rule: nonzero; stroke: none; fill: rgb(255, 255, 255);" d="m 5398.83,847.848 h -174.94 c -10.64,0 -19.27,-8.606 -19.27,-19.243 V 25.3594 c 0,-10.6094 8.63,-19.26565 19.27,-19.26565 h 174.94 c 10.63,0 19.3,8.65625 19.3,19.26565 V 828.605 c 0,10.637 -8.67,19.243 -19.3,19.243"/>
      <path id="path20" style="fill-opacity: 1; fill-rule: nonzero; stroke: none; fill: rgb(255, 255, 255);" d="m 2051.63,847.813 h -148.7 c -17.91,0 -32.44,-14.524 -32.44,-32.442 0,0 0,-511.516 0,-545.824 0,-57.582 -80.35,-76.07 -178.92,-76.07 -96.82,0 -110.52,0 -110.52,0 0,0 -13.71,0 -110.52,0 -98.58,0 -178.93,18.488 -178.93,76.07 0,34.308 0,545.824 0,545.824 0,17.918 -14.52,32.442 -32.44,32.442 h -148.69 c -17.92,0 -32.44,-14.524 -32.44,-32.442 0,0 0.06,-462.035 0.06,-558.43 0,-96.39 41.94,-157.2926 121.76,-205.1597 79.81,-47.86724 265.78,-45.70317 320.93,-45.70317 55.14,0 60.27,0 60.27,0 0,0 5.12,0 60.27,0 55.14,0 241.11,-2.16407 320.92,45.70317 79.82,47.8671 121.76,108.7697 121.76,205.1597 0,96.395 0.07,558.43 0.07,558.43 0,17.918 -14.53,32.442 -32.44,32.442"/>
      <path id="path22" style="fill-opacity: 1; fill-rule: nonzero; stroke: none; fill: rgb(255, 255, 255);" d="m 6414.76,842.16 c 3.54,3.488 8.43,5.653 13.79,5.653 h 243.75 c 10.88,0 19.69,-8.829 19.69,-19.704 0,-6.386 -3.05,-12.062 -7.76,-15.656 L 6326.41,500.945 c -3.56,-3.558 -8.48,-5.757 -13.91,-5.757 -5.79,0 -10.98,2.484 -14.58,6.441 l -121.88,106.086 c -3.17,3.496 -5.1,8.137 -5.1,13.226 0,6.051 2.71,11.461 7.02,15.086 l 236.8,206.133"/>
      <path id="path24" style="fill-opacity: 1; fill-rule: nonzero; stroke: none; fill: rgb(255, 255, 255);" d="m 6414.76,11.7539 c 3.54,-3.49609 8.43,-5.66015 13.79,-5.66015 h 243.75 c 10.88,0 19.69,8.82815 19.69,19.70315 0,6.3867 -3.05,12.0625 -7.76,15.664 L 6326.41,352.969 c -3.56,3.551 -8.48,5.75 -13.91,5.75 -5.79,0 -10.98,-2.492 -14.58,-6.442 L 6176.04,246.191 c -3.17,-3.496 -5.1,-8.136 -5.1,-13.226 0,-6.059 2.71,-11.461 7.02,-15.098 l 236.8,-206.1131"/>
      <path id="path26" style="fill-opacity: 1; fill-rule: nonzero; stroke: none; fill: rgb(175, 209, 53);" d="m 5764.09,11.2695 c -3.5,-3.20309 -8.17,-5.17575 -13.3,-5.17575 h -244.06 c -10.87,0 -19.68,8.82815 -19.68,19.70315 0,5.4336 2.2,10.3476 5.76,13.8984 l 427.68,372.2027 c 4.29,3.61 7.01,9.02 7.01,15.071 0,5.722 -2.44,10.855 -6.32,14.449 l -427.16,371.676 c -4.27,3.601 -6.97,8.984 -6.97,15.015 0,10.875 8.81,19.704 19.68,19.704 h 244.06 c 5.15,0 9.84,-1.973 13.34,-5.204 l 460.42,-400.777 c 4.17,-3.602 6.8,-8.914 6.8,-14.863 0,-5.961 -2.64,-11.313 -6.83,-14.93 L 5764.09,11.2695"/>
      <path id="path28" style="fill-opacity: 1; fill-rule: nonzero; stroke: none; fill: rgb(255, 255, 255);" d="m 2721.24,640.762 c 0,10.875 8.81,19.668 19.68,19.668 h 302.74 c 17.92,0 32.45,14.523 32.45,32.441 v 122.5 c 0,17.918 -14.53,32.442 -32.45,32.442 h -858.35 c -17.92,0 -32.45,-14.524 -32.45,-32.442 v -122.5 c 0,-17.918 14.53,-32.441 32.45,-32.441 h 302.74 c 10.87,0 19.68,-8.793 19.68,-19.668 V 38.5352 c 0,-17.9336 14.53,-32.44145 32.45,-32.44145 h 148.13 c 17.92,0 32.44,14.50785 32.44,32.44145 l 0.49,602.2268"/>
      <path id="path30" style="fill-opacity: 1; fill-rule: nonzero; stroke: none; fill: rgb(255, 255, 255);" d="m 772.375,325.531 c 2.676,-2.215 5.871,-4.035 9.637,-4.035 7.511,0 13.613,6.078 13.613,13.59 V 815.43 c 0,17.918 14.527,32.445 32.441,32.445 h 148.625 c 17.918,0 32.439,-14.527 32.439,-32.445 0,0 0,-624.774 0,-695.821 C 1009.13,48.5938 981.406,17.5703 954.266,5.66016 927.117,-6.25 844.781,-1.57422 795.625,41.2188 746.469,84.0117 263.148,504.77 263.148,504.77 c 0,0 -28.496,24.937 -30.503,26.511 -2.008,1.578 -4.543,2.52 -7.305,2.52 -6.535,0 -11.832,-5.297 -11.832,-11.832 V 38.5352 c 0,-17.918 -14.528,-32.44145 -32.442,-32.44145 H 32.4414 C 14.5234,6.09375 0,20.6172 0,38.5352 c 0,0 0,624.3008 0,695.3238 0,71.02 27.7266,102.043 54.8711,113.954 27.1445,11.91 109.4809,7.253 158.6369,-35.543 49.156,-42.793 532.476,-463.559 532.476,-463.559 0,0 24.688,-21.762 26.391,-23.18"/>
      <path id="path32" style="fill-opacity: 1; fill-rule: nonzero; stroke: none; fill: rgb(255, 255, 255);" d="m 4898.67,325.531 c 2.68,-2.215 5.87,-4.035 9.64,-4.035 7.52,0 13.61,6.078 13.61,13.59 V 815.43 c 0,17.918 14.53,32.445 32.44,32.445 h 148.62 c 17.92,0 32.45,-14.527 32.45,-32.445 0,0 0,-624.774 0,-695.821 0,-71.0152 -27.72,-102.0387 -54.86,-113.94884 C 5053.42,-6.25 4971.09,-1.57422 4921.92,41.2188 4872.75,84.0117 4389.44,504.77 4389.44,504.77 c 0,0 -28.49,24.937 -30.5,26.511 -2.01,1.578 -4.54,2.52 -7.31,2.52 -6.54,0 -11.84,-5.297 -11.84,-11.832 V 38.5352 c 0,-17.918 -14.5,-32.44145 -32.44,-32.44145 h -148.6 c -17.94,0 -32.45,14.52345 -32.45,32.44145 0,0 0,624.3008 0,695.3238 0,71.02 27.72,102.043 54.86,113.954 27.15,11.91 109.48,7.253 158.63,-35.543 49.17,-42.793 532.48,-463.559 532.48,-463.559 0,0 24.69,-21.762 26.4,-23.18"/>
      <path id="path34" style="fill-opacity: 1; fill-rule: nonzero; stroke: none; fill: rgb(255, 255, 255);" d="m 5204.62,815.371 c 0,17.918 14.53,32.442 32.45,32.442 h 148.62 c 17.92,0 32.44,-14.524 32.44,-32.442 V 38.5352 c 0,-17.918 -14.52,-32.44145 -32.44,-32.44145 h -148.62 c -17.92,0 -32.45,14.52345 -32.45,32.44145 V 815.371"/>
      <path id="path36" style="fill-opacity: 1; fill-rule: nonzero; stroke: none; fill: rgb(255, 255, 255);" d="m 3532.21,411.141 h -217.45 c -6.54,0 -11.84,5.285 -11.84,11.824 0,3.262 1.32,6.211 3.46,8.351 l 106.97,154.493 c 0.59,0.976 1.57,1.597 2.42,2.363 0.65,0.605 1.16,1.363 1.94,1.805 1.43,0.796 3.11,1.136 4.82,1.281 0.34,0.039 0.61,0.246 0.96,0.254 0.34,-0.008 0.61,-0.215 0.95,-0.254 1.71,-0.145 3.39,-0.485 4.82,-1.281 0.78,-0.442 1.29,-1.2 1.95,-1.805 0.84,-0.766 1.82,-1.387 2.41,-2.363 l 106.97,-154.493 c 2.13,-2.14 3.46,-5.089 3.46,-8.351 0,-6.539 -5.29,-11.824 -11.84,-11.824 z M 4052.5,38.4844 3526.74,797.867 l 0.02,0.035 c -22.59,32.805 -60.42,54.309 -103.27,54.309 h -0.01 c -42.85,0 -80.68,-21.504 -103.27,-54.309 l 0.02,-0.035 -525.76,-759.3826 c -2.89,-3.4297 -4.64,-7.8594 -4.64,-12.7071 0,-10.871 8.81,-19.69917 19.68,-19.69917 h 192.25 c 7.32,0 13.68,3.98047 17.08,9.89847 L 3154.9,212.57 c 3.17,6.614 9.93,11.188 17.76,11.188 h 501.65 c 7.84,0 14.59,-4.574 17.76,-11.188 L 3828.12,15.9766 c 3.4,-5.918 9.77,-9.89847 17.09,-9.89847 h 192.25 c 10.87,0 19.68,8.82817 19.68,19.69917 0,4.8477 -1.75,9.2774 -4.64,12.7071"/>
    </g>
  </g>
  <path d="M 343.538 37.899 C 343.938 39.119 344.758 39.869 345.918 39.869 L 346.258 39.869 C 347.418 39.869 348.238 39.059 348.638 37.899 L 359.138 6.699 L 369.698 37.899 C 370.098 39.059 370.908 39.869 372.068 39.869 L 372.418 39.869 C 373.578 39.869 374.388 39.059 374.798 37.899 L 387.788 1.819 C 387.908 1.479 388.078 1.069 388.078 0.719 C 388.078 -0.441 386.978 -1.541 385.758 -1.541 C 384.658 -1.541 383.908 -0.791 383.558 0.259 L 372.308 32.619 L 361.688 0.259 C 361.338 -0.791 360.588 -1.541 359.428 -1.541 L 359.138 -1.541 C 357.918 -1.541 357.228 -0.791 356.878 0.259 L 346.258 32.619 L 335.068 0.369 C 334.718 -0.671 333.848 -1.541 332.688 -1.541 C 331.418 -1.541 330.308 -0.441 330.308 0.779 C 330.308 1.129 330.428 1.479 330.548 1.819 L 343.538 37.899 ZM 413.883 40.049 C 426.243 40.049 434.653 30.239 434.653 19.049 L 434.653 18.929 C 434.653 7.739 426.353 -1.951 414.003 -1.951 C 401.643 -1.951 393.233 7.859 393.233 19.049 L 393.233 19.169 C 393.233 30.359 401.533 40.049 413.883 40.049 Z M 414.003 35.809 C 404.723 35.809 397.993 28.269 397.993 19.049 L 397.993 18.929 C 397.993 9.709 404.603 2.289 413.883 2.289 C 423.163 2.289 429.893 9.829 429.893 19.049 L 429.893 19.169 C 429.893 28.389 423.283 35.809 414.003 35.809 ZM 444.329 37.319 C 444.329 38.599 445.379 39.639 446.589 39.639 C 447.869 39.639 448.909 38.599 448.909 37.319 L 448.909 23.569 L 460.569 23.569 L 471.999 38.419 C 472.519 39.119 473.219 39.639 474.139 39.639 C 475.299 39.639 476.459 38.599 476.459 37.379 C 476.459 36.739 476.169 36.219 475.709 35.699 L 465.619 22.699 C 471.939 21.489 476.459 17.599 476.459 10.929 L 476.459 10.809 C 476.459 7.619 475.299 4.779 473.329 2.809 C 470.779 0.259 466.779 -1.251 461.789 -1.251 L 446.589 -1.251 C 445.379 -1.251 444.329 -0.211 444.329 1.069 L 444.329 37.319 Z M 448.909 19.459 L 448.909 2.979 L 461.439 2.979 C 467.999 2.979 471.819 5.999 471.819 10.989 L 471.819 11.099 C 471.819 16.319 467.469 19.459 461.379 19.459 L 448.909 19.459 ZM 486.26 37.319 C 486.26 38.599 487.31 39.639 488.52 39.639 C 489.8 39.639 490.84 38.599 490.84 37.319 L 490.84 28.499 L 499.6 19.749 L 514.74 38.599 C 515.15 39.179 515.73 39.639 516.6 39.639 C 517.87 39.639 518.92 38.539 518.92 37.319 C 518.92 36.619 518.68 36.159 518.28 35.639 L 502.85 16.609 L 517.23 2.349 C 517.7 1.879 517.99 1.359 517.99 0.719 C 517.99 -0.441 517 -1.541 515.78 -1.541 C 515.03 -1.541 514.51 -1.191 513.99 -0.731 L 490.84 22.989 L 490.84 0.779 C 490.84 -0.501 489.8 -1.541 488.52 -1.541 C 487.31 -1.541 486.26 -0.501 486.26 0.779 L 486.26 37.319 ZM 541.066 39.929 C 549.126 39.929 554.926 35.409 554.926 28.449 L 554.926 28.329 C 554.926 22.119 550.756 18.819 541.706 16.849 C 532.776 14.929 530.686 12.789 530.686 8.959 L 530.686 8.839 C 530.686 5.189 534.046 2.289 539.326 2.289 C 543.096 2.289 546.406 3.329 549.826 5.829 C 550.236 6.119 550.636 6.229 551.156 6.229 C 552.376 6.229 553.366 5.249 553.366 4.029 C 553.366 3.159 552.846 2.519 552.376 2.169 C 548.666 -0.501 544.776 -1.831 539.446 -1.831 C 531.726 -1.831 526.106 2.869 526.106 9.249 L 526.106 9.359 C 526.106 16.029 530.396 19.049 539.736 21.079 C 548.256 22.879 550.286 25.019 550.286 28.789 L 550.286 28.909 C 550.286 32.909 546.696 35.809 541.246 35.809 C 536.076 35.809 532.256 34.249 528.426 30.999 C 528.136 30.709 527.616 30.479 527.036 30.479 C 525.816 30.479 524.826 31.459 524.826 32.739 C 524.826 33.489 525.176 34.129 525.696 34.479 C 530.226 38.069 535.156 39.929 541.066 39.929 ZM 564.263 37.319 C 564.263 38.599 565.313 39.639 566.523 39.639 C 567.803 39.639 568.843 38.599 568.843 37.319 L 568.843 21.079 L 592.283 21.079 L 592.283 37.319 C 592.283 38.599 593.323 39.639 594.603 39.639 C 595.813 39.639 596.863 38.599 596.863 37.319 L 596.863 0.779 C 596.863 -0.501 595.813 -1.541 594.603 -1.541 C 593.323 -1.541 592.283 -0.501 592.283 0.779 L 592.283 16.789 L 568.843 16.789 L 568.843 0.779 C 568.843 -0.501 567.803 -1.541 566.523 -1.541 C 565.313 -1.541 564.263 -0.501 564.263 0.779 L 564.263 37.319 ZM 627.19 40.049 C 639.55 40.049 647.96 30.239 647.96 19.049 L 647.96 18.929 C 647.96 7.739 639.66 -1.951 627.31 -1.951 C 614.95 -1.951 606.54 7.859 606.54 19.049 L 606.54 19.169 C 606.54 30.359 614.84 40.049 627.19 40.049 Z M 627.31 35.809 C 618.03 35.809 611.3 28.269 611.3 19.049 L 611.3 18.929 C 611.3 9.709 617.91 2.289 627.19 2.289 C 636.47 2.289 643.2 9.829 643.2 19.049 L 643.2 19.169 C 643.2 28.389 636.59 35.809 627.31 35.809 ZM 657.636 37.319 C 657.636 38.599 658.686 39.639 659.896 39.639 C 661.176 39.639 662.216 38.599 662.216 37.319 L 662.216 25.019 L 672.076 25.019 C 680.726 25.019 688.026 20.499 688.026 11.739 L 688.026 11.629 C 688.026 3.619 681.996 -1.251 672.836 -1.251 L 659.896 -1.251 C 658.686 -1.251 657.636 -0.211 657.636 1.069 L 657.636 37.319 Z M 662.216 20.849 L 662.216 2.979 L 672.486 2.979 C 679.036 2.979 683.386 5.999 683.386 11.799 L 683.386 11.919 C 683.386 17.249 678.986 20.849 672.256 20.849 L 662.216 20.849 ZM 710.296 39.929 C 718.356 39.929 724.156 35.409 724.156 28.449 L 724.156 28.329 C 724.156 22.119 719.986 18.819 710.936 16.849 C 702.006 14.929 699.917 12.789 699.917 8.959 L 699.917 8.839 C 699.917 5.189 703.276 2.289 708.556 2.289 C 712.326 2.289 715.636 3.329 719.056 5.829 C 719.466 6.119 719.866 6.229 720.386 6.229 C 721.606 6.229 722.596 5.249 722.596 4.029 C 722.596 3.159 722.076 2.519 721.606 2.169 C 717.896 -0.501 714.006 -1.831 708.676 -1.831 C 700.956 -1.831 695.336 2.869 695.336 9.249 L 695.336 9.359 C 695.336 16.029 699.626 19.049 708.966 21.079 C 717.486 22.879 719.516 25.019 719.516 28.789 L 719.516 28.909 C 719.516 32.909 715.926 35.809 710.477 35.809 C 705.306 35.809 701.486 34.249 697.656 30.999 C 697.366 30.709 696.846 30.479 696.266 30.479 C 695.046 30.479 694.056 31.459 694.056 32.739 C 694.056 33.489 694.406 34.129 694.926 34.479 C 699.456 38.069 704.386 39.929 710.296 39.929 Z" transform="matrix(1, 0, 0, 1, -1.4210854715202004e-14, 0)" style="fill: rgb(255, 255, 255); white-space: pre;"/>
</svg>